# Exported from Wings 3D 0.98.20c
mtllib flatbuilding02.mtl
o cube2_copy5
#32 vertices, 30 faces
v -0.567000 -2.00000e-2 0.456000
v -0.567000 0.250000 0.456000
v 0.567000 0.250000 0.456000
v 0.567000 -2.00000e-2 0.456000
v -0.567000 -2.00000e-2 -0.456000
v -0.567000 0.250000 -0.456000
v 0.567000 0.250000 -0.456000
v 0.567000 -2.00000e-2 -0.456000
v -0.515928 0.340000 0.404928
v 0.515928 0.340000 0.404928
v 0.515928 0.340000 -0.404928
v -0.515928 0.340000 -0.404928
v -0.541464 0.250000 0.430464
v 0.541464 0.250000 0.430464
v 0.541464 0.250000 -0.430464
v -0.541464 0.250000 -0.430464
v -0.451140 0.498000 0.340140
v 0.451140 0.498000 0.340140
v 0.451140 0.498000 -0.340140
v -0.451140 0.498000 -0.340140
v -0.483534 0.340000 0.372534
v 0.483534 0.340000 0.372534
v 0.483534 0.340000 -0.372534
v -0.483534 0.340000 -0.372534
v -0.143271 0.563402 0.117297
v 0.143271 0.563402 0.117297
v 0.143271 0.563402 -0.117297
v -0.143271 0.563402 -0.117297
v -0.150992 0.538598 0.125018
v 0.150992 0.538598 0.125018
v 0.150992 0.538598 -0.125018
v -0.150992 0.538598 -0.125018
vt -5.55112e-17 5.55112e-17
vt -5.55112e-17 0.299578
vt -5.55112e-17 0.299578
vt -5.55112e-17 0.599157
vt -5.55112e-17 0.687848
vt -2.77556e-17 0.687848
vt -2.77556e-17 0.776539
vt 0.00000e+0 0.776539
vt 5.55112e-17 1.000000
vt 8.38819e-3 0.307967
vt 8.38819e-3 0.590768
vt 9.85940e-2 0.847203
vt 9.85940e-2 0.929336
vt 0.197791 0.847203
vt 0.197791 0.929336
vt 0.296385 0.776539
vt 0.296385 0.776539
vt 0.296385 1.000000
vt 0.299578 0.687848
vt 0.299578 0.687848
vt 0.299578 0.776539
vt 0.307026 0.829519
vt 0.310219 0.740828
vt 0.364114 0.307967
vt 0.364114 0.590768
vt 0.372502 0.00000e+0
vt 0.372502 8.86909e-2
vt 0.372502 5.55112e-17
vt 0.372502 8.86909e-2
vt 0.372502 0.119422
vt 0.372502 0.299578
vt 0.372502 0.299578
vt 0.372502 0.416179
vt 0.372502 0.416180
vt 0.372502 0.469160
vt 0.372502 0.599157
vt 0.372502 0.610832
vt 0.372502 0.672294
vt 0.372502 0.687848
vt 0.372502 0.610833
vt 0.372502 0.641563
vt 0.372502 0.522141
vt 0.372503 0.150153
vt 0.375038 0.680827
vt 0.380890 0.150152
vt 0.380890 0.672294
vt 0.380890 0.119422
vt 0.380890 0.641563
vt 0.383143 0.522140
vt 0.383143 0.469160
vt 0.383143 0.405538
vt 0.383144 0.160794
vt 0.469163 0.680827
vt 0.471699 0.672294
vt 0.471699 0.672294
vt 0.474235 0.680827
vt 0.530488 0.829519
vt 0.533681 0.740828
vt 0.541129 0.776539
vt 0.544322 0.687848
vt 0.544322 0.687848
vt 0.544322 0.764909
vt 0.568360 0.680828
vt 0.570896 0.672294
vt 0.570896 0.672294
vt 0.573432 0.680827
vt 0.638447 0.687848
vt 0.638447 0.687848
vt 0.638447 0.764909
vt 0.640983 0.696381
vt 0.646916 0.672294
vt 0.646916 0.641563
vt 0.650493 0.680827
vt 0.653029 0.672294
vt 0.655304 0.610833
vt 0.655304 0.641563
vt 0.672080 0.610833
vt 0.672081 0.522142
vt 0.679528 0.522141
vt 0.679528 0.469160
vt 0.690169 0.469161
vt 0.690169 0.416180
vt 0.700810 0.405539
vt 0.700811 0.160795
vt 0.711451 0.416180
vt 0.711452 0.150154
vt 0.718044 0.696381
vt 0.719839 0.150153
vt 0.719839 0.119422
vt 0.720580 0.687848
vt 0.728228 0.119423
vt 0.728228 8.86909e-2
vt 0.745004 0.00000e+0
vt 0.745004 8.86909e-2
vn -0.577350 -0.577350 0.577350
vn -0.408248 0.816497 0.408248
vn 0.408248 0.816497 0.408248
vn 0.577350 -0.577350 0.577350
vn -0.577350 -0.577350 -0.577350
vn -0.408248 0.816497 -0.408248
vn 0.408248 0.816497 -0.408248
vn 0.577350 -0.577350 -0.577350
vn -0.333268 0.881966 0.333268
vn 0.333268 0.881966 0.333268
vn 0.333268 0.881966 -0.333268
vn -0.333268 0.881966 -0.333268
vn -0.333268 0.881966 0.333268
vn 0.333268 0.881966 0.333268
vn 0.333268 0.881966 -0.333268
vn -0.333268 0.881966 -0.333268
vn -0.387967 0.827494 0.405876
vn 0.387967 0.827494 0.405876
vn 0.387967 0.827494 -0.405876
vn -0.387967 0.827494 -0.405876
vn -0.353319 0.866217 0.353319
vn 0.353319 0.866217 0.353319
vn 0.353319 0.866217 -0.353319
vn -0.353319 0.866217 -0.353319
vn -0.456989 0.763100 0.456989
vn 0.456989 0.763100 0.456989
vn 0.456989 0.763100 -0.456989
vn -0.456989 0.763100 -0.456989
vn -0.361339 0.852202 0.378399
vn 0.361339 0.852202 0.378399
vn 0.361339 0.852202 -0.378399
vn -0.361339 0.852202 -0.378399
g cube2_copy5_cube2_copy5_auv
usemtl cube2_copy5_auv
f 1/4/1 4/36/4 3/39/3 2/5/2
f 1/3/1 5/1/5 8/28/8 4/32/4
f 2/42/2 6/78/6 5/77/5 1/37/1
f 2/2/2 13/10/13 16/11/16 6/4/6
f 3/31/3 14/24/14 13/10/13 2/2/2
f 4/6/4 8/19/8 7/21/7 3/7/3
f 6/26/6 7/93/7 8/94/8 5/27/5
f 6/4/6 16/11/16 15/25/15 7/36/7
f 7/36/7 15/25/15 14/24/14 3/31/3
f 9/47/9 13/29/13 14/92/14 10/89/10
f 9/85/9 21/83/21 24/84/24 12/86/12
f 10/46/10 14/41/14 15/76/15 11/71/11
f 10/33/10 22/51/22 21/83/21 9/85/9
f 11/45/11 15/30/15 16/91/16 12/88/12
f 11/43/11 23/52/23 22/51/22 10/33/10
f 12/48/12 16/40/16 13/75/13 9/72/9
f 12/86/12 24/84/24 23/52/23 11/43/11
f 17/50/17 21/34/21 22/82/22 18/80/18
f 17/8/17 29/12/29 32/13/32 20/9/20
f 18/23/18 22/20/22 23/61/23 19/58/19
f 18/16/18 30/14/30 29/12/29 17/8/17
f 19/49/19 23/35/23 24/81/24 20/79/20
f 19/18/19 31/15/31 30/14/30 18/16/18
f 20/22/20 24/17/24 21/59/21 17/57/17
f 20/9/20 32/13/32 31/15/31 19/18/19
f 25/44/25 29/38/29 30/55/30 26/53/26
f 26/67/26 27/69/27 28/62/28 25/60/25
f 26/66/26 30/64/30 31/74/31 27/73/27
f 27/56/27 31/54/31 32/65/32 28/63/28
f 28/70/28 32/68/32 29/90/29 25/87/25
