# Exported from Wings 3D 0.98.20c
mtllib skyscraper02.mtl
o cube3_copy12
#104 vertices, 86 faces
v -5.43551e-2 8.00000e-3 -1.20420e-3
v -5.43551e-2 0.670000 -1.20420e-3
v 0.315645 0.670000 0.768796
v 0.715645 0.670000 0.368796
v 0.315645 8.00000e-3 0.768796
v 0.715645 8.00000e-3 0.368796
v 0.715645 0.670000 0.181596
v 0.532845 0.670000 -1.20420e-3
v 0.715645 8.00000e-3 0.181596
v 0.532845 8.00000e-3 -1.20420e-3
v 0.130045 8.00000e-3 0.768796
v -5.43551e-2 8.00000e-3 0.584396
v 0.130045 0.670000 0.768796
v -5.43551e-2 0.670000 0.584396
v 0.637258 8.00000e-3 0.544022
v 0.490871 8.00000e-3 0.690409
v 0.637258 0.670000 0.544022
v 0.490871 0.670000 0.690409
v 0.497213 0.720000 8.48188e-2
v 3.16679e-2 0.720000 8.48188e-2
v 3.16679e-2 0.720000 0.548764
v 0.165677 0.720000 0.682773
v 0.297281 0.720000 0.682773
v 0.441262 0.720000 0.618363
v 0.565212 0.720000 0.494413
v 0.629622 0.720000 0.350432
v 0.629622 0.720000 0.217228
v 0.513950 0.670000 4.44112e-2
v 7.41273e-4 0.670000 5.38922e-2
v -8.73969e-3 0.670000 0.565501
v 0.148939 0.670000 0.723180
v 0.306412 0.670000 0.725546
v 0.466067 0.670000 0.654386
v 0.601235 0.670000 0.519218
v 0.672395 0.670000 0.359563
v 0.670029 0.670000 0.200490
v -5.40001e-2 8.00000e-3 1.20395e-3
v -5.40001e-2 1.50200 1.20395e-3
v 0.716000 1.50200 -0.368795
v 0.316001 1.50200 -0.768796
v 0.716000 8.00000e-3 -0.368795
v 0.316001 8.00000e-3 -0.768796
v 0.128801 1.50200 -0.768796
v -5.39994e-2 1.50200 -0.585996
v 0.128801 8.00000e-3 -0.768796
v -5.39994e-2 8.00000e-3 -0.585996
v 0.716000 8.00000e-3 -0.183195
v 0.531600 8.00000e-3 1.20473e-3
v 0.716000 1.50200 -0.183195
v 0.531600 1.50200 1.20473e-3
v 0.491227 8.00000e-3 -0.690408
v 0.637613 8.00000e-3 -0.544022
v 0.491227 1.50200 -0.690408
v 0.637613 1.50200 -0.544022
v -0.716000 8.00000e-3 1.20308e-3
v -0.716000 1.50200 1.20308e-3
v -0.282401 1.50200 0.677204
v -0.716000 1.50200 0.149603
v -0.282401 8.00000e-3 0.677204
v -0.716000 8.00000e-3 0.149603
v -0.716000 1.50200 -0.153597
v -0.283599 1.50200 -0.585996
v -0.716000 8.00000e-3 -0.153597
v -0.283599 8.00000e-3 -0.585996
v -0.146401 8.00000e-3 0.677204
v -5.40008e-2 8.00000e-3 0.584804
v -0.146401 1.50200 0.677204
v -5.40008e-2 1.50200 0.584804
v -0.110365 1.54000 0.561457
v -0.110365 1.54000 1.20389e-3
v -0.110364 1.54000 -0.529632
v -0.260253 1.54000 -0.529632
v -0.659636 1.54000 -0.130250
v -0.659636 1.54000 1.20315e-3
v -0.659636 1.54000 0.129414
v -0.255766 1.54000 0.620839
v -0.169748 1.54000 0.620839
v -8.43282e-2 1.50200 0.572242
v -8.21824e-2 1.50200 1.20392e-3
v -9.04360e-2 1.50200 -0.549559
v -0.271037 1.50200 -0.555669
v -0.685672 1.50200 -0.141035
v -0.687818 1.50200 1.20311e-3
v -0.686167 1.50200 0.138917
v -0.267807 1.50200 0.646320
v -0.158963 1.50200 0.646876
v 1.33680e-2 1.55600 -0.558091
v 1.33674e-2 1.55600 -6.61634e-2
v 0.503695 1.55600 -6.61627e-2
v 0.648633 1.55600 -0.211100
v 0.648633 1.55600 -0.354413
v 0.581192 1.55600 -0.505171
v 0.452376 1.55600 -0.633987
v 0.301619 1.55600 -0.701428
v 0.156705 1.55600 -0.701428
v -1.82765e-2 1.50200 -0.571199
v -1.08523e-2 1.50200 -4.19438e-2
v 0.516803 1.50200 -3.45182e-2
v 0.680277 1.50200 -0.197992
v 0.682130 1.50200 -0.361564
v 0.609403 1.50200 -0.524596
v 0.471802 1.50200 -0.662197
v 0.308770 1.50200 -0.734925
v 0.143598 1.50200 -0.733073
vt 0.00000e+0 7.04955e-2
vt 0.00000e+0 0.246496
vt 0.00000e+0 0.661679
vt 0.00000e+0 0.661680
vt 0.00000e+0 0.820341
vt 2.37224e-8 0.800849
vt 4.12592e-8 0.630582
vt 5.10154e-8 0.700130
vt 8.08125e-8 0.600771
vt 1.08728e-7 0.743627
vt 1.66796e-7 0.787393
vt 2.81751e-7 0.449324
vt 5.43617e-5 0.117406
vt 7.28381e-3 0.249115
vt 1.34560e-2 0.787393
vt 1.48826e-2 0.400526
vt 1.54693e-2 2.98414e-2
vt 1.56179e-2 0.158024
vt 2.13784e-2 0.397465
vt 2.18164e-2 0.224731
vt 2.46549e-2 0.231606
vt 3.86329e-2 0.424331
vt 4.31537e-2 0.419821
vt 4.51733e-2 6.84784e-5
vt 4.56474e-2 0.187984
vt 4.85721e-2 0.231634
vt 5.14266e-2 0.224765
vt 6.34075e-2 0.449163
vt 6.62620e-2 0.442295
vt 0.104227 0.187916
vt 0.104266 0.00000e+0
vt 0.111356 0.911857
vt 0.140307 0.322894
vt 0.140408 0.911857
vt 0.140408 0.787393
vt 0.141058 0.224662
vt 0.144827 0.318383
vt 0.158654 0.318399
vt 0.170195 0.911857
vt 0.198204 9.37211e-2
vt 0.199135 0.442449
vt 0.201973 0.449324
vt 0.227128 0.412565
vt 0.238766 0.224662
vt 0.238804 0.412579
vt 0.242110 0.232761
vt 0.242167 0.404488
vt 0.260694 0.821358
vt 0.260694 0.787393
vt 0.260694 0.801235
vt 0.266469 0.787393
vt 0.279624 0.224502
vt 0.291605 1.03341e-4
vt 0.294040 0.404548
vt 0.294496 0.232822
vt 0.295724 0.806916
vt 0.295902 0.791864
vt 0.297384 0.412647
vt 0.297859 0.224731
vt 0.304398 0.199670
vt 0.320833 0.378411
vt 0.320972 0.258765
vt 0.321215 6.90280e-5
vt 0.327414 0.382687
vt 0.327562 0.254504
vt 0.328149 0.175864
vt 0.330951 0.787393
vt 0.334575 0.801996
vt 0.334575 0.801999
vt 0.335346 0.340652
vt 0.335397 0.296557
vt 0.338188 0.787393
vt 0.338537 0.661679
vt 0.338537 0.661679
vt 0.338537 0.630582
vt 0.338537 0.700129
vt 0.338537 0.600771
vt 0.338537 0.743627
vt 0.338537 0.661680
vt 0.338537 0.727685
vt 0.338537 0.752069
vt 0.338537 0.787393
vt 0.338537 0.690248
vt 0.338537 0.717509
vt 0.338537 0.628738
vt 0.338537 0.449325
vt 0.338537 0.638723
vt 0.338537 0.499691
vt 0.338537 0.449324
vt 0.341866 0.717509
vt 0.342328 0.628739
vt 0.342977 0.342069
vt 0.343032 0.295158
vt 0.343032 0.431623
vt 0.343032 0.441287
vt 0.343032 4.49169e-7
vt 0.343032 2.18349e-2
vt 0.343032 2.90642e-2
vt 0.343032 6.78240e-2
vt 0.343032 0.122503
vt 0.343032 0.299381
vt 0.343032 0.170042
vt 0.343032 0.299381
vt 0.345116 0.739648
vt 0.347550 0.431624
vt 0.373245 0.791835
vt 0.373436 0.806887
vt 0.381061 0.769092
vt 0.382771 0.754722
vt 0.402316 0.787393
vt 0.408102 0.801230
vt 0.415103 0.751537
vt 0.417987 0.765697
vt 0.446068 0.739648
vt 0.451482 0.752867
vt 0.467836 0.431624
vt 0.467837 0.442334
vt 0.468087 0.729033
vt 0.469579 0.739648
vt 0.483694 0.645164
vt 0.484645 0.655842
vt 0.495743 0.717510
vt 0.502098 0.744261
vt 0.502098 0.725118
vt 0.502098 0.730355
vt 0.502098 0.772663
vt 0.506037 0.758761
vt 0.508425 0.717510
vt 0.508969 0.757629
vt 0.509307 0.637054
vt 0.512332 0.647325
vt 0.535567 0.628739
vt 0.540518 0.628739
vt 0.540518 0.638076
vt 0.540518 0.642883
vt 0.543436 0.780926
vt 0.543584 0.642882
vt 0.544473 0.657383
vt 0.544737 0.766496
vt 0.546427 0.744261
vt 0.547729 0.729839
vt 0.582159 0.766213
vt 0.583886 0.780597
vt 0.594787 0.431624
vt 0.597231 0.442061
vt 0.597231 0.441220
vt 0.601767 0.431624
vt 0.611677 0.758761
vt 0.614088 0.758761
vt 0.617402 0.771884
vt 0.618044 0.744261
vt 0.619269 0.446720
vt 0.619301 0.436000
vt 0.637356 0.431624
vt 0.642068 0.441113
vt 0.649955 0.656250
vt 0.655049 0.642163
vt 0.656074 0.717509
vt 0.656827 0.642882
vt 0.660455 0.628739
vt 0.662648 0.730175
vt 0.677074 0.661679
vt 0.677074 0.690247
vt 0.677074 0.717509
vt 0.677074 0.628739
vt 0.677074 0.499692
vt 0.677074 0.449325
vt 0.681569 0.431624
vt 0.681569 0.00000e+0
vt 0.681569 2.90637e-2
vt 0.681569 6.78236e-2
vt 0.681569 0.122503
vt 0.681569 0.299381
vt 0.681569 0.170041
vt 0.681569 4.14174e-2
vt 0.681569 0.174461
vt 0.681569 0.299380
vt 0.681569 0.307157
vt 0.681569 0.348942
vt 0.681569 0.498949
vt 0.681569 0.498949
vt 0.681569 0.764703
vt 0.681569 0.764704
vt 0.681569 0.813695
vt 0.681569 0.854978
vt 0.681569 0.890564
vt 0.681569 0.632008
vt 0.681569 0.632008
vt 0.681578 8.38319e-2
vt 0.691377 8.17400e-2
vt 0.691905 4.56984e-2
vt 0.699347 0.123534
vt 0.701224 4.93235e-2
vt 0.701231 7.95039e-2
vt 0.707507 0.117913
vt 0.715831 0.112126
vt 0.716688 0.348942
vt 0.716688 0.498949
vt 0.722978 0.00000e+0
vt 0.723354 0.348942
vt 0.727261 1.03352e-2
vt 0.731219 1.93233e-2
vt 0.732521 0.156701
vt 0.738140 0.148539
vt 0.743921 0.140210
vt 0.757397 0.348942
vt 0.757397 0.498949
vt 0.765410 0.348942
vt 0.772227 0.174461
vt 0.774317 0.164662
vt 0.776547 0.154804
vt 0.799739 0.348942
vt 0.799739 0.498949
vt 0.805116 0.331179
vt 0.806365 0.154804
vt 0.809996 0.164126
vt 0.814279 0.174461
vt 0.814627 0.174461
vt 0.831577 0.498949
vt 0.831577 0.764703
vt 0.831577 0.813695
vt 0.831577 0.854978
vt 0.831577 0.890564
vt 0.831577 0.632008
vt 0.831577 0.632007
vt 0.836699 1.93236e-2
vt 0.836721 0.124441
vt 0.838287 0.298008
vt 0.838575 0.348942
vt 0.838575 0.498949
vt 0.843542 1.24837e-2
vt 0.845714 0.128400
vt 0.856022 3.51451e-7
vt 0.856049 0.215883
vt 0.856049 0.258303
vt 0.856050 0.132681
vt 0.856050 3.24800e-2
vt 0.856050 6.53172e-2
vt 0.871332 9.94784e-2
vt 0.888530 1.47898e-7
vt 0.900522 0.128668
vt 0.934683 0.143950
vt 0.967158 0.143950
vt 1.000000 0.00000e+0
vt 1.00000 0.111107
vn -0.577350 -0.577350 -0.577350
vn -0.408248 0.816497 -0.408248
vn 0.145973 0.714940 0.683778
vn 0.683778 0.714940 0.145973
vn 0.185890 -0.455221 0.870758
vn 0.870758 -0.455221 0.185890
vn 0.626943 0.734510 -0.259688
vn 0.259688 0.734510 -0.626943
vn 0.812520 -0.475963 -0.336557
vn 0.336557 -0.475963 -0.812520
vn -0.336557 -0.475963 0.812520
vn -0.812520 -0.475963 0.336557
vn -0.259688 0.734510 0.626943
vn -0.626943 0.734510 0.259688
vn 0.734180 -0.453217 0.505544
vn 0.505544 -0.453217 0.734180
vn 0.577501 0.712994 0.397657
vn 0.397657 0.712994 0.577501
vn 0.204347 0.833097 -0.513996
vn -0.334573 0.880974 -0.334584
vn -0.513996 0.833099 0.204338
vn -0.207402 0.845754 0.491614
vn 0.110870 0.837835 0.534547
vn 0.308105 0.839321 0.447896
vn 0.447896 0.839321 0.308105
vn 0.534547 0.837832 0.110895
vn 0.491618 0.845758 -0.207377
vn 0.153588 0.909487 -0.386321
vn -0.243782 0.938689 -0.243790
vn -0.386320 0.909489 0.153581
vn -0.155906 0.916038 0.369550
vn 8.38914e-2 0.910694 0.404473
vn 0.233272 0.911366 0.339110
vn 0.339110 0.911366 0.233272
vn 0.404473 0.910692 8.39103e-2
vn 0.369552 0.916041 -0.155887
vn 0.301511 -0.904534 0.301512
vn 0.235702 0.942809 0.235703
vn 0.683778 0.714940 -0.145972
vn 0.145974 0.714940 -0.683778
vn 0.870758 -0.455221 -0.185888
vn 0.185891 -0.455221 -0.870758
vn -0.259688 0.734510 -0.626943
vn -0.160481 0.907821 -0.387437
vn -0.336556 -0.475963 -0.812520
vn -0.259688 -0.734510 -0.626943
vn 0.812519 -0.475963 0.336558
vn 0.336556 -0.475963 0.812520
vn 0.626943 0.734510 0.259689
vn 0.259688 0.734510 0.626943
vn 0.505545 -0.453217 -0.734179
vn 0.734181 -0.453217 -0.505543
vn 0.397658 0.712994 -0.577501
vn 0.577502 0.712994 -0.397657
vn -0.707107 -0.707107 -9.38183e-7
vn -0.707107 0.707107 -9.38183e-7
vn -0.286535 0.741766 0.606367
vn -0.645313 0.728109 0.231147
vn -0.373881 -0.483942 0.791210
vn -0.831439 -0.469058 0.297816
vn -0.626943 0.734510 -0.259689
vn -0.259688 0.734510 -0.626943
vn -0.812519 -0.475963 -0.336558
vn -0.336556 -0.475963 -0.812520
vn 0.336556 -0.475963 0.812520
vn 0.812520 -0.475963 0.336558
vn 0.259688 0.734510 0.626943
vn 0.626943 0.734510 0.259689
vn 0.531921 0.817000 0.222647
vn 0.616621 0.787258 -1.82100e-3
vn 0.360077 0.860420 -0.360585
vn -0.218706 0.803148 -0.554185
vn -0.531536 0.816776 -0.224379
vn -0.600086 0.799935 -4.96251e-4
vn -0.547502 0.812513 0.200161
vn -0.246015 0.817845 0.520199
vn 0.221971 0.812442 0.539135
vn 0.400161 0.901009 0.167496
vn 0.469647 0.882853 -1.38696e-3
vn 0.261512 0.928994 -0.261881
vn -0.164504 0.893970 -0.416841
vn -0.399940 0.900858 -0.168828
vn -0.456602 0.889671 -3.77594e-4
vn -0.413028 0.898113 0.150999
vn -0.184539 0.902044 0.390207
vn 0.166993 0.898666 0.405602
vn -0.588844 0.772634 -0.237276
vn -0.389020 0.835066 0.389010
vn 0.237267 0.772635 0.588846
vn 0.569954 0.786102 0.239157
vn 0.618419 0.775136 -0.129316
vn 0.519060 0.776543 -0.357152
vn 0.357154 0.776543 -0.519059
vn 0.129338 0.775133 -0.618418
vn -0.239136 0.786105 -0.569958
vn -0.443613 0.878211 -0.178754
vn -0.281073 0.917606 0.281065
vn 0.178747 0.878212 0.443613
vn 0.429344 0.884990 0.180156
vn 0.469994 0.877181 -9.82793e-2
vn 0.394790 0.877696 -0.271645
vn 0.271646 0.877696 -0.394789
vn 9.82958e-2 0.877180 -0.469993
vn -0.180140 0.884992 -0.429347
g cube3_copy12_cube3_copy12_auv
usemtl cube3_copy12_auv
f 1/182/1 12/187/12 14/224/14 2/220/2
f 2/219/2 8/225/8 10/188/10 1/181/1
f 2/233/2 29/231/29 28/201/28 8/199/8
f 3/185/3 13/184/13 11/221/11 5/222/5
f 3/209/3 32/210/32 31/216/31 13/217/13
f 4/207/4 6/206/6 9/212/9 7/213/7
f 4/189/4 35/190/35 34/195/34 17/192/17
f 7/175/7 36/191/36 35/190/35 4/189/4
f 8/230/8 7/213/7 9/212/9 10/229/10
f 8/199/8 28/201/28 36/191/36 7/175/7
f 10/218/10 9/234/9 6/235/6 15/228/15 16/214/16 5/208/5 11/200/11 12/178/12 1/176/1
f 12/220/12 11/221/11 13/184/13 14/183/14
f 13/217/13 31/216/31 30/232/30 14/236/14
f 14/236/14 30/232/30 29/231/29 2/233/2
f 16/223/16 18/186/18 3/185/3 5/222/5
f 17/198/17 15/197/15 6/206/6 4/207/4
f 17/192/17 34/195/34 33/204/33 18/203/18
f 18/180/18 16/179/16 15/197/15 17/198/17
f 18/203/18 33/204/33 32/210/32 3/209/3
f 19/138/19 28/135/28 29/159/29 20/156/20
f 20/226/20 21/227/21 22/215/22 23/211/23 24/205/24 25/196/25 26/194/26 27/193/27 19/202/19
f 20/129/20 29/123/29 30/151/30 21/149/21
f 21/227/21 30/232/30 31/216/31 22/215/22
f 22/110/22 31/111/31 32/107/32 23/106/23
f 23/106/23 32/107/32 33/69/33 24/72/24
f 24/205/24 33/204/33 34/195/34 25/196/25
f 25/67/25 34/68/34 35/56/35 26/57/26
f 26/57/26 35/56/35 36/50/36 27/51/27
f 27/193/27 36/191/36 28/201/28 19/202/19
f 37/85/37 48/88/48 50/166/50 38/165/38
f 37/40/37 55/60/55 63/52/63 64/36/64 46/30/46
f 37/40/37 66/53/66 65/63/65 59/97/59 60/66/60 55/60/55
f 38/173/38 68/168/68 66/94/66 37/101/37
f 38/37/38 79/33/79 78/26/78 68/27/68
f 38/37/38 97/38/97 96/47/96 44/45/44
f 39/8/39 49/4/49 47/73/47 41/76/41
f 39/65/39 100/62/100 99/55/99 49/59/49
f 40/98/40 42/170/42 45/171/45 43/99/43
f 40/64/40 103/61/103 102/70/102 53/92/53
f 43/58/43 104/54/104 103/61/103 40/64/40
f 44/100/44 43/99/43 45/171/45 46/172/46
f 44/45/44 80/43/80 79/33/79 38/37/38
f 44/45/44 96/47/96 104/54/104 43/58/43
f 46/30/46 45/25/45 42/18/42 51/13/51 52/1/52 41/17/41 47/24/47 48/31/48 37/40/37
f 46/172/46 64/174/64 62/102/62 44/100/44
f 48/88/48 47/89/47 49/167/49 50/166/50
f 49/59/49 99/55/99 98/46/98 50/44/50
f 50/44/50 98/46/98 97/38/97 38/37/38
f 52/78/52 54/10/54 39/8/39 41/76/41
f 53/96/53 51/169/51 42/170/42 40/98/40
f 53/92/53 102/70/102 101/71/101 54/93/54
f 54/10/54 52/78/52 51/82/51 53/11/53
f 54/93/54 101/71/101 100/62/100 39/65/39
f 55/7/55 60/9/60 58/77/58 56/75/56
f 56/75/56 61/74/61 63/3/63 55/7/55
f 56/22/56 83/23/83 82/29/82 61/28/61
f 57/79/57 59/162/59 65/163/65 67/83/67
f 57/2/57 85/14/85 84/19/84 58/16/58
f 58/16/58 84/19/84 83/23/83 56/22/56
f 59/12/59 57/86/57 58/77/58 60/9/60
f 61/28/61 82/29/82 81/41/81 62/42/62
f 62/42/62 81/41/81 80/43/80 44/45/44
f 64/174/64 63/177/63 61/103/61 62/102/62
f 67/20/67 86/21/86 85/14/85 57/2/57
f 68/84/68 67/83/67 65/163/65 66/164/66
f 68/27/68 78/26/78 86/21/86 67/20/67
f 69/144/69 78/145/78 79/117/79 70/116/70
f 70/35/70 71/49/71 72/48/72 73/39/73 74/34/74 75/32/75 76/5/76 77/6/77 69/15/69
f 70/116/70 79/117/79 80/95/80 71/105/71
f 71/122/71 80/124/80 81/119/81 72/118/72
f 72/118/72 81/119/81 82/80/82 73/90/73
f 73/132/73 82/134/82 83/131/83 74/130/74
f 74/130/74 83/131/83 84/121/84 75/120/75
f 75/120/75 84/121/84 85/87/85 76/91/76
f 76/154/76 85/155/85 86/152/86 77/153/77
f 77/153/77 86/152/86 78/146/78 69/147/69
f 87/137/87 96/133/96 97/160/97 88/157/88
f 88/244/88 89/245/89 90/243/90 91/242/91 92/241/92 93/239/93 94/238/94 95/237/95 87/240/87
f 88/158/88 97/161/97 98/140/98 89/141/89
f 89/141/89 98/140/98 99/125/99 90/128/90
f 90/148/90 99/150/99 100/143/100 91/142/91
f 91/142/91 100/143/100 101/136/101 92/139/92
f 92/139/92 101/136/101 102/126/102 93/127/93
f 93/114/93 102/115/102 103/113/103 94/112/94
f 94/112/94 103/113/103 104/108/104 95/109/95
f 95/109/95 104/108/104 96/81/96 87/104/87
