# Exported from Wings 3D 0.98.20c
mtllib skyscraper04.mtl
o cube3_copy19
#144 vertices, 140 faces
v -0.206200 0.354000 0.385000
v -0.385000 0.354000 0.206200
v -0.206200 1.85800 0.385000
v -0.385000 1.85800 0.206200
v 0.206200 1.85800 0.385000
v 0.385000 1.85800 0.206200
v 0.206200 0.354000 0.385000
v 0.385000 0.354000 0.206200
v -0.385000 0.354000 -0.206200
v -0.206200 0.354000 -0.385000
v -0.385000 1.85800 -0.206200
v -0.206200 1.85800 -0.385000
v 0.206200 1.85800 -0.385000
v 0.385000 1.85800 -0.206200
v 0.206200 0.354000 -0.385000
v 0.385000 0.354000 -0.206200
v -0.522179 0.354000 0.343379
v -0.343379 0.354000 0.522179
v -0.343379 1.85800 0.522179
v -0.522179 1.85800 0.343379
v 0.522179 0.354000 -0.343379
v 0.343379 0.354000 -0.522179
v 0.343379 1.85800 -0.522179
v 0.522179 1.85800 -0.343379
v 0.343379 0.354000 0.522179
v 0.522179 0.354000 0.343379
v 0.522179 1.85800 0.343379
v 0.343379 1.85800 0.522179
v -0.343379 0.354000 -0.522179
v -0.522179 0.354000 -0.343379
v -0.522179 1.85800 -0.343379
v -0.343379 1.85800 -0.522179
v -0.497833 0.354000 0.497833
v -0.497833 1.85800 0.497833
v 0.497833 0.354000 -0.497833
v 0.497833 1.85800 -0.497833
v 0.497833 0.354000 0.497833
v 0.497833 1.85800 0.497833
v -0.497833 0.354000 -0.497833
v -0.497833 1.85800 -0.497833
v -0.181960 1.92200 0.326480
v 0.181960 1.92200 0.326480
v 0.326480 1.92200 0.181960
v 0.326480 1.92200 -0.181960
v 0.181960 1.92200 -0.326480
v -0.181960 1.92200 -0.326480
v -0.326480 1.92200 -0.181960
v -0.326480 1.92200 0.181960
v -0.194080 1.85800 0.355740
v 0.194080 1.85800 0.355740
v 0.355740 1.85800 0.194080
v 0.355740 1.85800 -0.194080
v 0.194080 1.85800 -0.355740
v -0.194080 1.85800 -0.355740
v -0.355740 1.85800 -0.194080
v -0.355740 1.85800 0.194080
v 0.206200 9.80000e-2 0.385000
v -0.206200 9.80000e-2 0.385000
v -0.385000 9.80000e-2 0.206200
v -0.385000 9.80000e-2 -0.206200
v -0.206200 9.80000e-2 -0.385000
v 0.206200 9.80000e-2 -0.385000
v 0.385000 9.80000e-2 -0.206200
v 0.385000 9.80000e-2 0.206200
v -0.385000 9.80000e-2 0.278126
v -0.278126 9.80000e-2 0.385000
v -0.361034 9.80000e-2 0.467909
v -0.453356 9.80000e-2 0.453356
v -0.467909 9.80000e-2 0.361034
v 0.385000 9.80000e-2 -0.278126
v 0.278126 9.80000e-2 -0.385000
v 0.361034 9.80000e-2 -0.467909
v 0.453356 9.80000e-2 -0.453356
v 0.467909 9.80000e-2 -0.361034
v 0.278126 9.80000e-2 0.385000
v 0.385000 9.80000e-2 0.278126
v 0.467909 9.80000e-2 0.361034
v 0.453356 9.80000e-2 0.453356
v 0.361034 9.80000e-2 0.467909
v -0.278126 9.80000e-2 -0.385000
v -0.385000 9.80000e-2 -0.278126
v -0.467909 9.80000e-2 -0.361034
v -0.453356 9.80000e-2 -0.453356
v -0.361034 9.80000e-2 -0.467909
v -0.385000 0.354000 0.249591
v -0.249591 0.354000 0.385000
v -0.352207 0.354000 0.495044
v -0.473533 0.354000 0.473533
v -0.495044 0.354000 0.352207
v 0.385000 0.354000 -0.249591
v 0.249591 0.354000 -0.385000
v 0.352207 0.354000 -0.495044
v 0.473533 0.354000 -0.473533
v 0.495044 0.354000 -0.352207
v 0.249591 0.354000 0.385000
v 0.385000 0.354000 0.249591
v 0.495044 0.354000 0.352207
v 0.473533 0.354000 0.473533
v 0.352207 0.354000 0.495044
v -0.249591 0.354000 -0.385000
v -0.385000 0.354000 -0.249591
v -0.495044 0.354000 -0.352207
v -0.473533 0.354000 -0.473533
v -0.352207 0.354000 -0.495044
v -0.385000 -3.60000e-2 5.90264e-2
v -5.90264e-2 -3.60000e-2 0.385000
v -0.307252 -3.60000e-2 0.633226
v -0.588840 -3.60000e-2 0.588840
v -0.633226 -3.60000e-2 0.307252
v 0.385000 -3.60000e-2 -5.90264e-2
v 5.90264e-2 -3.60000e-2 -0.385000
v 0.307252 -3.60000e-2 -0.633226
v 0.588840 -3.60000e-2 -0.588840
v 0.633226 -3.60000e-2 -0.307252
v 5.90264e-2 -3.60000e-2 0.385000
v 0.385000 -3.60000e-2 5.90264e-2
v 0.633226 -3.60000e-2 0.307252
v 0.588840 -3.60000e-2 0.588840
v 0.307252 -3.60000e-2 0.633226
v -5.90264e-2 -3.60000e-2 -0.385000
v -0.385000 -3.60000e-2 -5.90264e-2
v -0.633226 -3.60000e-2 -0.307252
v -0.588840 -3.60000e-2 -0.588840
v -0.307252 -3.60000e-2 -0.633226
v -0.385000 9.80000e-2 0.145949
v -0.145949 9.80000e-2 0.385000
v -0.334143 9.80000e-2 0.550567
v -0.527376 9.80000e-2 0.527376
v -0.550567 9.80000e-2 0.334143
v 0.385000 9.80000e-2 -0.145949
v 0.145949 9.80000e-2 -0.385000
v 0.334143 9.80000e-2 -0.550567
v 0.527376 9.80000e-2 -0.527376
v 0.550567 9.80000e-2 -0.334143
v 0.145949 9.80000e-2 0.385000
v 0.385000 9.80000e-2 0.145949
v 0.550567 9.80000e-2 0.334143
v 0.527376 9.80000e-2 0.527376
v 0.334143 9.80000e-2 0.550567
v -0.145949 9.80000e-2 -0.385000
v -0.385000 9.80000e-2 -0.145949
v -0.550567 9.80000e-2 -0.334143
v -0.527376 9.80000e-2 -0.527376
v -0.334143 9.80000e-2 -0.550567
vt 0.00000e+0 0.157840
vt 0.00000e+0 0.361593
vt 0.00000e+0 0.414260
vt 0.00000e+0 0.585149
vt 0.00000e+0 0.839977
vt 4.58008e-8 0.619669
vt 8.64790e-8 0.650328
vt 1.07915e-7 0.921312
vt 2.08770e-7 0.742498
vt 2.49448e-7 0.773157
vt 2.95249e-7 0.807677
vt 4.51171e-3 0.328871
vt 4.51171e-3 0.125118
vt 4.71743e-3 0.453941
vt 9.36855e-3 0.293646
vt 9.36855e-3 8.98930e-2
vt 1.55981e-2 0.545467
vt 2.03156e-2 0.585149
vt 2.17629e-2 4.89477e-7
vt 2.17629e-2 0.203753
vt 3.22996e-2 0.807677
vt 3.22998e-2 0.953611
vt 5.68151e-2 0.407505
vt 6.15325e-2 0.447187
vt 7.24132e-2 0.538713
vt 7.71306e-2 0.578394
vt 0.113635 0.807677
vt 0.113635 0.953611
vt 0.145934 0.839977
vt 0.145934 0.850175
vt 0.145934 0.921312
vt 0.150591 0.807677
vt 0.151222 0.823821
vt 0.201830 0.862688
vt 0.207904 0.807677
vt 0.208530 0.829297
vt 0.208530 0.850166
vt 0.212673 0.834550
vt 0.213270 0.807677
vt 0.264458 0.862686
vt 0.269793 0.841725
vt 0.270549 0.807677
vt 0.270549 0.807677
vt 0.271306 0.841725
vt 0.276640 0.862686
vt 0.327828 0.807677
vt 0.328425 0.834550
vt 0.332568 0.828520
vt 0.332568 0.850166
vt 0.332989 0.203753
vt 0.332989 0.407505
vt 0.333931 0.807677
vt 0.336139 0.585149
vt 0.336139 0.619669
vt 0.336139 0.650328
vt 0.336139 0.742498
vt 0.336139 0.773157
vt 0.336139 0.807677
vt 0.337500 0.374783
vt 0.337500 0.171031
vt 0.342357 0.339558
vt 0.342357 0.135805
vt 0.354752 4.59129e-2
vt 0.354752 0.249666
vt 0.361082 0.203753
vt 0.361082 2.77556e-17
vt 0.389753 0.835160
vt 0.391500 0.807677
vt 0.391500 0.807677
vt 0.393246 0.835160
vt 0.393354 0.650328
vt 0.393354 0.742498
vt 0.395321 0.407506
vt 0.399036 0.347373
vt 0.399036 0.143620
vt 0.406202 0.499031
vt 0.411431 5.37277e-2
vt 0.411431 0.257480
vt 0.417761 0.211568
vt 0.417761 7.81487e-3
vt 0.417761 0.208381
vt 0.417761 0.243328
vt 0.417761 0.278274
vt 0.417761 0.313221
vt 0.417761 0.600808
vt 0.417761 0.704837
vt 0.417761 4.45987e-7
vt 0.417761 8.67180e-2
vt 0.417761 8.67171e-2
vt 0.417761 0.173435
vt 0.417761 0.523415
vt 0.417761 0.652823
vt 0.417761 0.756851
vt 0.417761 0.173435
vt 0.417761 0.208382
vt 0.417761 0.243328
vt 0.417761 0.278275
vt 0.417761 0.130076
vt 0.417761 4.33588e-2
vt 0.417761 4.33588e-2
vt 0.417761 0.130076
vt 0.417761 0.386075
vt 0.427681 0.586349
vt 0.427681 0.323142
vt 0.431498 0.633723
vt 0.431498 0.737752
vt 0.431498 0.685738
vt 0.431498 0.789766
vt 0.449069 0.807677
vt 0.450431 0.828520
vt 0.450431 0.828520
vt 0.451794 0.807677
vt 0.473239 0.467937
vt 0.473239 0.441553
vt 0.474685 0.631352
vt 0.474685 0.735380
vt 0.474685 0.683366
vt 0.474685 0.787394
vt 0.480695 0.752312
vt 0.480695 0.648283
vt 0.480695 0.700297
vt 0.480695 0.596269
vt 0.490615 0.596269
vt 0.490615 0.313221
vt 0.507616 0.835160
vt 0.509363 0.807677
vt 0.509363 0.807677
vt 0.511109 0.835160
vt 0.516745 0.648283
vt 0.516746 0.752312
vt 0.516746 0.700297
vt 0.516746 0.804326
vt 0.536172 0.621654
vt 0.536172 0.725682
vt 0.536172 0.673668
vt 0.536173 0.777696
vt 0.546093 0.540792
vt 0.546093 0.368699
vt 0.562557 0.621654
vt 0.562557 0.725682
vt 0.562557 0.673668
vt 0.562557 0.777696
vt 0.566932 0.807677
vt 0.568294 0.828520
vt 0.568294 0.828520
vt 0.569657 0.807677
vt 0.572477 0.540792
vt 0.572477 0.368699
vt 0.581984 0.648283
vt 0.581984 0.752312
vt 0.581984 0.700297
vt 0.581984 0.804326
vt 0.618034 0.752312
vt 0.618034 0.648283
vt 0.618034 0.700297
vt 0.618034 0.596269
vt 0.624045 0.631352
vt 0.624045 0.735380
vt 0.624045 0.683366
vt 0.624045 0.787394
vt 0.625479 0.835160
vt 0.627226 0.807677
vt 0.627226 0.833844
vt 0.627954 0.596269
vt 0.627955 0.313222
vt 0.628547 0.807677
vt 0.645331 0.467938
vt 0.645331 0.441553
vt 0.667231 0.633724
vt 0.667231 0.737752
vt 0.667231 0.685738
vt 0.667232 0.789766
vt 0.680968 0.756850
vt 0.680968 0.704837
vt 0.680968 0.652822
vt 0.680968 0.600808
vt 0.684314 0.841253
vt 0.686114 0.807677
vt 0.686114 0.807677
vt 0.687915 0.841253
vt 0.690888 0.586349
vt 0.690889 0.323142
vt 0.700809 0.523415
vt 0.700809 0.386076
vt 0.743682 0.807677
vt 0.745003 0.828538
vt 0.745003 0.833844
vt 0.746054 0.807677
vt 0.753900 0.313221
vt 0.753900 9.71445e-17
vt 0.753900 8.67176e-2
vt 0.753900 0.208382
vt 0.753900 0.243328
vt 0.753900 0.278275
vt 0.753900 8.67176e-2
vt 0.753900 0.173435
vt 0.753900 0.278275
vt 0.753900 0.173436
vt 0.753900 0.208382
vt 0.753900 0.243329
vt 0.753900 0.792421
vt 0.753900 4.33584e-2
vt 0.753900 0.439549
vt 0.753900 0.519472
vt 0.753900 0.665469
vt 0.753900 0.723727
vt 0.753900 0.734196
vt 0.753900 4.33592e-2
vt 0.753900 0.130076
vt 0.753900 0.130077
vt 0.753900 0.197730
vt 0.753900 0.697465
vt 0.753900 0.611642
vt 0.753900 4.83700e-2
vt 0.753900 0.286061
vt 0.756609 0.749923
vt 0.758288 0.708443
vt 0.758556 0.749923
vt 0.759083 0.240917
vt 0.759083 5.18308e-3
vt 0.759188 0.766067
vt 0.759341 0.474069
vt 0.759342 0.251541
vt 0.759460 0.682690
vt 0.760439 0.651604
vt 0.772374 0.203740
vt 0.772374 4.23599e-2
vt 0.775626 0.224373
vt 0.775627 2.17263e-2
vt 0.784559 0.408890
vt 0.784559 0.316720
vt 0.790030 0.682690
vt 0.790904 0.185210
vt 0.790904 0.155669
vt 0.790904 9.04307e-2
vt 0.790904 6.08897e-2
vt 0.791099 0.406181
vt 0.791099 0.319429
vt 0.792739 0.666998
vt 0.793861 0.479510
vt 0.793861 0.479511
vt 0.793861 0.651603
vt 0.793861 0.246100
vt 0.796260 0.227626
vt 0.796260 1.84739e-2
vt 0.798626 0.708443
vt 0.799443 0.692504
vt 0.802188 0.835178
vt 0.802270 0.246100
vt 0.802270 -2.77556e-17
vt 0.803623 0.807677
vt 0.803623 0.807677
vt 0.805058 0.835178
vt 0.809796 0.804934
vt 0.814790 0.209096
vt 0.814790 3.70037e-2
vt 0.815869 0.749923
vt 0.816495 0.771544
vt 0.824520 0.448851
vt 0.824520 0.276759
vt 0.827229 0.442312
vt 0.827229 0.283299
vt 0.836439 0.718257
vt 0.837257 0.734195
vt 0.837944 0.749923
vt 0.840653 0.734195
vt 0.844331 0.209096
vt 0.844331 3.70037e-2
vt 0.861192 0.807677
vt 0.862243 0.828538
vt 0.862243 0.828538
vt 0.863293 0.807677
vt 0.874074 0.666998
vt 0.876423 0.708443
vt 0.876783 0.682690
vt 0.877595 0.682690
vt 0.881982 0.723217
vt 0.881982 0.697975
vt 0.886031 0.479511
vt 0.886031 0.651603
vt 0.906374 0.651603
vt 0.909569 0.209096
vt 0.909569 3.70038e-2
vt 0.912913 0.665469
vt 0.913981 0.442312
vt 0.913982 0.283299
vt 0.916690 0.448852
vt 0.916690 0.276759
vt 0.919428 0.835178
vt 0.920862 0.807677
vt 0.925992 0.519472
vt 0.925993 0.611642
vt 0.925993 0.479511
vt 0.925993 0.650709
vt 0.925993 0.671271
vt 0.925993 0.761310
vt 0.925993 0.586789
vt 0.925993 0.794839
vt 0.925993 0.607351
vt 0.925993 0.714629
vt 0.925993 0.543431
vt 0.925993 0.522869
vt 0.928050 0.768720
vt 0.928050 0.735191
vt 0.931676 0.647816
vt 0.931676 0.583896
vt 0.931676 0.711736
vt 0.931676 0.519976
vt 0.932850 0.678128
vt 0.932850 0.486368
vt 0.932850 0.614208
vt 0.932850 0.550288
vt 0.939110 0.209096
vt 0.939110 3.70039e-2
vt 0.947349 0.479511
vt 0.947349 0.246100
vt 0.950112 0.406182
vt 0.950112 0.319429
vt 0.951630 0.246100
vt 0.951630 1.98170e-7
vt 0.954249 0.607351
vt 0.954249 0.599671
vt 0.954249 0.671271
vt 0.954249 0.663591
vt 0.954249 0.727511
vt 0.954249 0.735191
vt 0.954249 0.535750
vt 0.954250 0.543431
vt 0.956651 0.408890
vt 0.956652 0.316720
vt 0.957640 0.227626
vt 0.957640 1.84741e-2
vt 0.962996 0.185210
vt 0.962996 0.155669
vt 0.962996 9.04310e-2
vt 0.962996 6.08899e-2
vt 0.975649 0.678128
vt 0.975649 0.486368
vt 0.975649 0.614208
vt 0.975649 0.550288
vt 0.976823 0.647816
vt 0.976823 0.583896
vt 0.976823 0.711736
vt 0.976823 0.519976
vt 0.978273 0.224374
vt 0.978274 2.17266e-2
vt 0.981526 0.203740
vt 0.981526 4.23602e-2
vt 0.981869 0.474069
vt 0.981869 0.251542
vt 0.982506 0.650709
vt 0.982506 0.586789
vt 0.982506 0.671271
vt 0.982506 0.479511
vt 0.982506 0.607351
vt 0.982506 0.714629
vt 0.982506 0.543431
vt 0.982506 0.522869
vt 0.983081 0.768720
vt 0.983081 0.802248
vt 0.985617 0.768720
vt 0.985617 0.735191
vt 0.987310 0.439549
vt 0.987311 0.286061
vt 0.994817 0.240917
vt 0.994817 5.18339e-3
vt 1.000000 0.197730
vt 1.00000 4.83703e-2
vn 3.97259e-13 -0.505449 0.862856
vn -0.862856 -0.505449 3.97162e-13
vn 0.200690 0.851455 0.484508
vn -0.484508 0.851455 -0.200690
vn -0.200690 0.851455 0.484508
vn 0.484508 0.851455 -0.200690
vn -7.93494e-13 -0.505449 0.862856
vn 0.862856 -0.505449 7.93679e-13
vn -0.862856 -0.505449 3.96769e-13
vn -3.96825e-13 -0.505449 -0.862856
vn -0.484508 0.851455 0.200690
vn 0.200690 0.851455 -0.484508
vn -0.200690 0.851455 -0.484508
vn 0.484508 0.851455 0.200690
vn 2.80581e-17 -0.505449 -0.862856
vn 0.862856 -0.505449 -2.80581e-17
vn -0.632677 -0.746562 -0.205828
vn 0.205828 -0.746562 0.632677
vn 0.269804 0.489305 0.829329
vn -0.829329 0.489305 -0.269804
vn 0.632677 -0.746562 0.205828
vn -0.205828 -0.746562 -0.632677
vn -0.269804 0.489305 -0.829329
vn 0.829329 0.489305 0.269804
vn -0.205828 -0.746562 0.632677
vn 0.632677 -0.746562 -0.205828
vn 0.829329 0.489305 -0.269804
vn -0.269804 0.489305 0.829329
vn 0.205828 -0.746562 -0.632677
vn -0.632677 -0.746562 0.205828
vn -0.829329 0.489305 0.269804
vn 0.269804 0.489305 -0.829329
vn -0.444598 -0.777603 0.444598
vn -0.601412 0.525935 0.601412
vn 0.444598 -0.777603 -0.444598
vn 0.601412 0.525935 -0.601412
vn 0.444598 -0.777603 0.444598
vn 0.601412 0.525935 0.601412
vn -0.444598 -0.777603 -0.444598
vn -0.601412 0.525935 -0.601412
vn -0.258715 0.736852 0.624592
vn 0.258715 0.736852 0.624592
vn 0.624592 0.736852 0.258715
vn 0.624592 0.736852 -0.258715
vn 0.258715 0.736852 -0.624592
vn -0.258715 0.736852 -0.624592
vn -0.624592 0.736852 -0.258715
vn -0.624592 0.736852 0.258715
vn -0.195307 0.859960 0.471512
vn 0.195307 0.859960 0.471512
vn 0.471512 0.859960 0.195307
vn 0.471512 0.859960 -0.195307
vn 0.195307 0.859960 -0.471512
vn -0.195307 0.859960 -0.471512
vn -0.471512 0.859960 -0.195307
vn -0.471512 0.859960 0.195307
vn 0.336557 -0.475963 0.812520
vn -0.336557 -0.475963 0.812520
vn -0.812520 -0.475963 0.336557
vn -0.812520 -0.475963 -0.336557
vn -0.336557 -0.475963 -0.812520
vn 0.336557 -0.475963 -0.812520
vn 0.812520 -0.475963 -0.336557
vn 0.812520 -0.475963 0.336557
vn 6.28181e-3 0.789823 -0.613303
vn 0.613303 0.789823 -6.28181e-3
vn 0.218299 0.718045 0.660876
vn -0.471821 0.744829 0.471821
vn -0.660876 0.718045 -0.218299
vn -6.28181e-3 0.789823 0.613303
vn -0.613303 0.789823 6.28181e-3
vn -0.218299 0.718045 -0.660876
vn 0.471821 0.744829 -0.471821
vn 0.660876 0.718045 0.218299
vn -0.613303 0.789823 -6.28181e-3
vn -6.28181e-3 0.789823 -0.613303
vn 0.660876 0.718045 -0.218299
vn 0.471821 0.744829 0.471821
vn -0.218299 0.718045 0.660876
vn 0.613303 0.789823 6.28181e-3
vn 6.28181e-3 0.789823 0.613303
vn -0.660876 0.718045 0.218299
vn -0.471821 0.744829 -0.471821
vn 0.218299 0.718045 -0.660876
vn 5.62081e-3 -0.835955 -0.548769
vn 0.548769 -0.835955 -5.62081e-3
vn 0.196899 -0.778401 0.596090
vn -0.421105 -0.803332 0.421105
vn -0.596090 -0.778401 -0.196899
vn -5.62081e-3 -0.835955 0.548769
vn -0.548769 -0.835955 5.62081e-3
vn -0.196899 -0.778401 -0.596090
vn 0.421105 -0.803332 -0.421105
vn 0.596090 -0.778401 0.196899
vn -0.548769 -0.835955 -5.62081e-3
vn -5.62081e-3 -0.835955 -0.548769
vn 0.596090 -0.778401 -0.196899
vn 0.421105 -0.803332 0.421105
vn -0.196899 -0.778401 0.596090
vn 0.548769 -0.835955 5.62081e-3
vn 5.62081e-3 -0.835955 0.548769
vn -0.596090 -0.778401 0.196899
vn -0.421105 -0.803332 -0.421105
vn 0.196899 -0.778401 -0.596090
vn -0.704231 -0.659947 -0.261780
vn 0.261780 -0.659947 0.704231
vn 0.306918 -3.71869e-2 0.951009
vn -0.706881 -2.52452e-2 0.706881
vn -0.951009 -3.71869e-2 -0.306918
vn 0.704231 -0.659947 0.261780
vn -0.261780 -0.659947 -0.704231
vn -0.306918 -3.71869e-2 -0.951009
vn 0.706881 -2.52452e-2 -0.706881
vn 0.951009 -3.71869e-2 0.306918
vn -0.197978 -0.822891 0.532593
vn 0.532593 -0.822891 -0.197978
vn 0.951009 -3.71869e-2 -0.306918
vn 0.706881 -2.52452e-2 0.706881
vn -0.306918 -3.71869e-2 0.951009
vn 0.197978 -0.822891 -0.532593
vn -0.532593 -0.822891 0.197978
vn -0.951009 -3.71869e-2 0.306918
vn -0.706881 -2.52452e-2 -0.706881
vn 0.306918 -3.71869e-2 -0.951009
vn -0.424124 0.891775 -0.157657
vn 0.157657 0.891775 0.424124
vn 0.145994 0.879798 0.452374
vn -0.302131 0.904120 0.302131
vn -0.452374 0.879798 -0.145994
vn 0.424124 0.891775 0.157657
vn -0.157657 0.891775 -0.424124
vn -0.145994 0.879798 -0.452374
vn 0.302131 0.904120 -0.302131
vn 0.452374 0.879798 0.145994
vn -0.127610 0.930520 0.343292
vn 0.343292 0.930520 -0.127610
vn 0.452374 0.879798 -0.145994
vn 0.302131 0.904120 0.302131
vn -0.145994 0.879798 0.452374
vn 0.127610 0.930520 -0.343292
vn -0.343292 0.930520 0.127610
vn -0.452374 0.879798 0.145994
vn -0.302131 0.904120 -0.302131
vn 0.145994 0.879798 -0.452374
g cube3_copy19_cube3_copy19_auv
usemtl cube3_copy19_auv
f 1/25/1 58/17/58 57/14/57 7/24/7
f 1/355/1 86/339/86 85/311/85 2/299/2
f 2/61/2 4/15/4 11/20/11 9/64/9
f 2/61/2 17/59/17 20/12/20 4/15/4
f 2/26/2 59/18/59 58/17/58 1/25/1
f 2/299/2 85/311/85 89/305/89 17/294/17
f 3/208/3 19/191/19 18/89/18 1/99/1
f 3/230/3 49/237/49 56/261/56 4/259/4
f 4/259/4 20/240/20 34/222/34 19/203/19 3/230/3
f 4/259/4 56/261/56 55/285/55 11/287/11
f 5/231/5 28/215/28 38/223/38 27/243/27 6/260/6
f 5/231/5 50/238/50 49/237/49 3/230/3
f 6/7/6 8/55/8 16/56/16 14/9/14
f 6/7/6 27/6/27 26/54/26 8/55/8
f 6/260/6 51/262/51 50/238/50 5/231/5
f 7/24/7 5/73/5 3/76/3 1/25/1
f 7/190/7 25/202/25 28/100/28 5/87/5
f 7/24/7 57/14/57 64/3/64 8/23/8
f 7/295/7 95/309/95 99/307/99 25/300/25
f 8/55/8 64/71/64 63/72/63 16/56/16
f 8/353/8 96/337/96 95/309/95 7/295/7
f 9/64/9 60/78/60 59/74/59 2/61/2
f 9/357/9 101/340/101 100/312/100 10/301/10
f 10/62/10 12/16/12 13/19/13 15/63/15
f 10/62/10 29/60/29 32/13/32 12/16/12
f 10/65/10 61/79/61 60/78/60 9/64/9
f 10/301/10 100/312/100 104/306/104 29/297/29
f 11/210/11 31/196/31 30/90/30 9/101/9
f 11/287/11 55/285/55 54/317/54 12/329/12
f 12/329/12 32/363/32 40/349/40 31/315/31 11/287/11
f 12/329/12 54/317/54 53/318/53 13/330/13
f 13/98/13 23/88/23 22/195/22 15/209/15
f 13/330/13 53/318/53 52/286/52 14/288/14
f 14/288/14 24/316/24 36/350/36 23/364/23 13/330/13
f 14/288/14 52/286/52 51/262/51 6/260/6
f 15/63/15 62/77/62 61/75/61 10/62/10
f 15/354/15 91/338/91 90/310/90 16/293/16
f 16/56/16 21/57/21 24/10/24 14/9/14
f 16/66/16 63/80/63 62/77/62 15/63/15
f 16/293/16 90/310/90 94/308/94 21/302/21
f 17/294/17 89/305/89 88/324/88 33/323/33
f 18/96/18 19/200/19 34/194/34 33/83/33
f 18/351/18 87/341/87 86/339/86 1/355/1
f 20/12/20 17/59/17 33/51/33 34/2/34
f 21/302/21 94/308/94 93/327/93 35/328/35
f 22/94/22 23/198/23 36/192/36 35/81/35
f 22/358/22 92/344/92 91/338/91 15/354/15
f 24/10/24 21/57/21 35/58/35 36/11/36
f 25/300/25 99/307/99 98/325/98 37/326/37
f 26/54/26 27/6/27 38/4/38 37/53/37
f 26/356/26 97/343/97 96/337/96 8/353/8
f 28/193/28 25/82/25 37/95/37 38/199/38
f 29/297/29 104/306/104 103/322/103 39/321/39
f 30/97/30 31/197/31 40/189/40 39/84/39
f 30/352/30 102/342/102 101/340/101 9/357/9
f 32/13/32 29/60/29 39/50/39 40/1/40
f 33/323/33 88/324/88 87/341/87 18/351/18
f 35/328/35 93/327/93 92/344/92 22/358/22
f 37/326/37 98/325/98 97/343/97 26/356/26
f 39/321/39 103/322/103 102/342/102 30/352/30
f 41/273/41 49/275/49 50/232/50 42/239/42
f 42/31/42 43/28/43 44/22/44 45/8/45 46/5/46 47/21/47 48/27/48 41/29/41
f 42/239/42 50/232/50 51/205/51 43/225/43
f 43/276/43 51/278/51 52/246/52 44/247/44
f 44/247/44 52/246/52 53/212/53 45/224/45
f 45/216/45 53/207/53 54/266/54 46/265/46
f 46/274/46 54/277/54 55/264/55 47/263/47
f 47/263/47 55/264/55 56/206/56 48/217/48
f 48/281/48 56/284/56 49/275/49 41/273/41
f 58/204/58 59/241/59 60/279/60 61/291/61 62/292/62 63/280/63 64/242/64 57/213/57
f 65/33/65 85/36/85 86/34/86 66/30/66
f 65/255/65 125/267/125 129/249/129 69/244/69
f 66/303/66 86/361/86 87/360/87 67/298/67
f 66/233/66 126/234/126 125/267/125 65/255/65
f 67/144/67 87/128/87 88/126/88 68/143/68
f 67/226/67 127/211/127 126/234/126 66/233/66
f 68/112/68 88/127/88 89/125/89 69/111/69
f 68/228/68 128/219/128 127/211/127 67/226/67
f 69/32/69 89/35/89 85/36/85 65/33/65
f 69/244/69 129/249/129 128/219/128 68/228/68
f 70/221/70 90/258/90 91/254/91 71/201/71
f 70/314/70 130/283/130 134/320/134 74/332/74
f 71/304/71 91/362/91 92/359/92 72/296/72
f 71/336/71 131/335/131 130/283/130 70/314/70
f 72/272/72 92/290/92 93/289/93 73/271/73
f 72/348/72 132/368/132 131/335/131 71/336/71
f 73/146/73 93/162/93 94/161/94 74/145/74
f 73/346/73 133/366/133 132/368/132 72/348/72
f 74/218/74 94/257/94 90/258/90 70/221/70
f 74/332/74 134/320/134 133/366/133 73/346/73
f 75/39/75 95/42/95 96/41/96 76/38/76
f 75/236/75 135/235/135 139/214/139 79/227/79
f 76/38/76 96/41/96 97/40/97 77/37/77
f 76/256/76 136/268/136 135/235/135 75/236/75
f 77/110/77 97/70/97 98/68/98 78/109/78
f 77/245/77 137/250/137 136/268/136 76/256/76
f 78/270/78 98/253/98 99/251/99 79/269/79
f 78/229/78 138/220/138 137/250/137 77/245/77
f 79/166/79 99/179/99 95/177/95 75/163/75
f 79/227/79 139/214/139 138/220/138 78/229/78
f 80/47/80 100/44/100 101/43/101 81/46/81
f 80/333/80 140/334/140 144/367/144 84/347/84
f 81/187/81 101/180/101 102/178/102 82/185/82
f 81/313/81 141/282/141 140/334/140 80/333/80
f 82/188/82 102/252/102 103/248/103 83/186/83
f 82/331/82 142/319/142 141/282/141 81/313/81
f 83/52/83 103/69/103 104/67/104 84/48/84
f 83/345/83 143/365/143 142/319/142 82/331/82
f 84/49/84 104/45/104 100/44/100 80/47/80
f 84/347/84 144/367/144 143/365/143 83/345/83
f 105/147/105 121/137/121 115/168/115 106/167/106
f 106/167/106 107/183/107 108/181/108 109/164/109 105/147/105
f 106/134/106 115/140/115 135/150/135 126/130/126
f 106/134/106 126/130/126 127/116/127 107/121/107
f 107/121/107 127/116/127 128/106/128 108/86/108
f 108/175/108 128/171/128 129/159/129 109/154/109
f 109/154/109 129/159/129 125/151/125 105/141/105
f 110/138/110 116/148/116 120/113/120 111/114/111
f 111/114/111 112/102/112 113/104/113 114/124/114 110/138/110
f 111/136/111 120/142/120 140/152/140 131/132/131
f 111/136/111 131/132/131 132/118/132 112/119/112
f 112/119/112 132/118/132 133/108/133 113/93/113
f 113/176/113 133/169/133 134/157/134 114/156/114
f 114/156/114 134/157/134 130/149/130 110/139/110
f 115/168/115 121/137/121 120/113/120 116/148/116
f 116/148/116 117/165/117 118/182/118 119/184/119 115/168/115
f 116/133/116 136/129/136 137/115/137 117/122/117
f 117/122/117 137/115/137 138/105/138 118/85/118
f 118/174/118 138/170/138 139/158/139 119/155/119
f 119/155/119 139/158/139 135/150/135 115/140/115
f 121/137/121 122/123/122 123/103/123 124/91/124 120/113/120
f 121/135/121 141/131/141 142/117/142 122/120/122
f 122/120/122 142/117/142 143/107/143 123/92/123
f 123/173/123 143/172/143 144/160/144 124/153/124
f 124/153/124 144/160/144 140/152/140 120/142/120
f 125/151/125 141/131/141 121/135/121 105/141/105
f 126/234/126 135/235/135 141/282/141 125/267/125
f 130/149/130 136/129/136 116/133/116 110/139/110
f 131/335/131 140/334/140 136/268/136 130/283/130
f 136/268/136 140/334/140 141/282/141 135/235/135
