# Exported from Wings 3D 0.98.20c
mtllib skyscraper03.mtl
o cube3_copy20
#32 vertices, 30 faces
v -0.209440 8.00000e-3 0.209440
v -0.209440 1.51200 0.209440
v 0.209440 1.51200 0.209440
v 0.209440 8.00000e-3 0.209440
v -0.209440 8.00000e-3 -0.209440
v -0.209440 1.51200 -0.209440
v 0.209440 1.51200 -0.209440
v 0.209440 8.00000e-3 -0.209440
v -0.176348 1.51200 -0.176348
v -0.176348 1.51200 0.176348
v 0.176348 1.51200 0.176348
v 0.176348 1.51200 -0.176348
v -0.176348 1.80000 -0.176348
v -0.176348 1.80000 0.176348
v 0.176348 1.80000 0.176348
v 0.176348 1.80000 -0.176348
v -0.136846 1.80000 -0.136846
v -0.136846 1.80000 0.136846
v 0.136846 1.80000 0.136846
v 0.136846 1.80000 -0.136846
v -0.136846 1.96800 -0.136846
v -0.136846 1.96800 0.136846
v 0.136846 1.96800 0.136846
v 0.136846 1.96800 -0.136846
v -0.112214 1.96800 -0.112214
v -0.112214 1.96800 0.112214
v 0.112214 1.96800 0.112214
v 0.112214 1.96800 -0.112214
v -0.112214 1.99800 -0.112214
v -0.112214 1.99800 0.112214
v 0.112214 1.99800 0.112214
v 0.112214 1.99800 -0.112214
vt 0.00000e+0 9.29302e-7
vt 0.00000e+0 0.390145
vt 0.00000e+0 0.585218
vt 0.00000e+0 0.585220
vt 0.00000e+0 0.780292
vt 0.00000e+0 0.914413
vt 0.00000e+0 0.914413
vt 0.00000e+0 0.992651
vt 2.58821e-7 0.195073
vt 2.58821e-7 0.390146
vt 2.58821e-7 0.780292
vt 2.58821e-7 0.195073
vt 0.127458 0.914413
vt 0.127458 0.992651
vt 0.164251 0.780292
vt 0.164251 0.914413
vt 0.328501 0.780292
vt 0.328501 0.914413
vt 0.328501 0.780292
vt 0.328501 0.914413
vt 0.492752 0.780292
vt 0.492752 0.914413
vt 0.492752 0.780292
vt 0.492752 0.907750
vt 0.504223 0.791763
vt 0.504223 0.896279
vt 0.608739 0.791763
vt 0.608739 0.896279
vt 0.620210 0.780292
vt 0.620211 0.780292
vt 0.620211 0.858529
vt 0.620211 0.907750
vt 0.700411 0.00000e+0
vt 0.700411 0.390146
vt 0.700411 0.585219
vt 0.700411 0.585219
vt 0.700412 2.58821e-7
vt 0.700412 0.390144
vt 0.700412 0.195072
vt 0.700412 0.195074
vt 0.700412 0.390145
vt 0.700412 0.390147
vt 0.700412 0.688517
vt 0.700412 0.766754
vt 0.700412 0.780291
vt 0.700412 0.554395
vt 0.700412 0.688517
vt 0.700412 0.554395
vt 0.700412 0.195072
vt 0.700412 0.195072
vt 0.715822 0.374734
vt 0.715823 0.210483
vt 0.718808 0.408541
vt 0.718808 0.535999
vt 0.747669 0.780292
vt 0.747669 0.858529
vt 0.747669 0.872500
vt 0.747669 0.872500
vt 0.747669 0.886471
vt 0.747669 0.886471
vt 0.747669 0.900442
vt 0.747669 0.914413
vt 0.747669 0.780292
vt 0.747669 0.858529
vt 0.827870 0.688517
vt 0.827870 0.766754
vt 0.846266 0.408541
vt 0.846266 0.535999
vt 0.852185 0.858529
vt 0.852185 0.872500
vt 0.852185 0.872500
vt 0.852185 0.886471
vt 0.852185 0.886471
vt 0.852185 0.900442
vt 0.852185 0.914413
vt 0.864662 0.390145
vt 0.864662 0.554395
vt 0.864662 0.688517
vt 0.864662 0.554395
vt 0.875128 0.780292
vt 0.875128 0.858529
vt 0.880073 0.374734
vt 0.880073 0.210483
vt 0.895484 -1.11022e-16
vt 0.895484 0.390145
vt 0.895484 1.38671e-7
vt 0.895484 0.195072
vt 0.895484 0.195073
vt 0.895484 0.104516
vt 1.000000 -1.04083e-16
vt 1.00000 0.104516
vn -0.577350 -0.577350 0.577350
vn -0.408248 0.816497 0.408248
vn 0.408248 0.816497 0.408248
vn 0.577350 -0.577350 0.577350
vn -0.577350 -0.577350 -0.577350
vn -0.408248 0.816497 -0.408248
vn 0.408248 0.816497 -0.408248
vn 0.577350 -0.577350 -0.577350
vn -0.408248 0.816497 -0.408248
vn -0.408248 0.816497 0.408248
vn 0.408248 0.816497 0.408248
vn 0.408248 0.816497 -0.408248
vn -0.408248 0.816497 -0.408248
vn -0.408248 0.816497 0.408248
vn 0.408248 0.816497 0.408248
vn 0.408248 0.816497 -0.408248
vn -0.408248 0.816497 -0.408248
vn -0.408248 0.816497 0.408248
vn 0.408248 0.816497 0.408248
vn 0.408248 0.816497 -0.408248
vn -0.408248 0.816497 -0.408248
vn -0.408248 0.816497 0.408248
vn 0.408248 0.816497 0.408248
vn 0.408248 0.816497 -0.408248
vn -0.408248 0.816497 -0.408248
vn -0.408248 0.816497 0.408248
vn 0.408248 0.816497 0.408248
vn 0.408248 0.816497 -0.408248
vn -0.577350 0.577350 -0.577350
vn -0.577350 0.577350 0.577350
vn 0.577350 0.577350 0.577350
vn 0.577350 0.577350 -0.577350
g cube3_copy20_cube3_copy20_auv
usemtl cube3_copy20_auv
f 1/3/1 4/10/4 3/42/3 2/35/2
f 1/37/1 5/84/5 8/87/8 4/49/4
f 2/40/2 6/34/6 5/2/5 1/9/1
f 2/38/2 10/51/10 9/82/9 6/85/6
f 3/50/3 11/52/11 10/51/10 2/38/2
f 4/33/4 8/39/8 7/12/7 3/1/3
f 6/36/6 7/45/7 8/11/8 5/4/5
f 6/85/6 9/82/9 12/83/12 7/88/7
f 7/88/7 12/83/12 11/52/11 3/50/3
f 9/18/9 13/17/13 16/21/16 12/22/12
f 10/77/10 14/78/14 13/47/13 9/46/9
f 11/19/11 15/20/15 14/16/14 10/15/10
f 12/15/12 16/16/16 15/6/15 11/5/11
f 13/41/13 17/53/17 20/54/20 16/48/16
f 14/76/14 18/67/18 17/53/17 13/41/13
f 15/79/15 19/68/19 18/67/18 14/76/14
f 16/48/16 20/54/20 19/68/19 15/79/15
f 17/8/17 21/7/21 24/13/24 20/14/20
f 18/65/18 22/66/22 21/44/21 17/43/17
f 19/80/19 23/81/23 22/56/22 18/55/18
f 20/63/20 24/64/24 23/31/23 19/30/19
f 21/23/21 25/25/25 28/26/28 24/24/24
f 22/29/22 26/27/26 25/25/25 21/23/21
f 23/32/23 27/28/27 26/27/26 22/29/22
f 24/24/24 28/26/28 27/28/27 23/32/23
f 25/62/25 29/61/29 32/74/32 28/75/28
f 26/69/26 30/71/30 29/58/29 25/56/25
f 27/73/27 31/74/31 30/61/30 26/60/26
f 28/70/28 32/72/32 31/59/31 27/57/27
f 30/90/30 31/91/31 32/89/32 29/86/29
